<svg width="8" height="9" viewBox="0 0 8 9" fill="none" xmlns="http://www.w3.org/2000/svg">
<g id="vuesax/linear/box-2">
<g id="box-2">
<path id="Vector" d="M6.22378 6.72341L6.96378 6.35341V5.42675M4.74044 3.76008L4.00044 4.13008L4.74044 3.76008ZM4.00044 4.13008L3.26044 3.76008L4.00044 4.13008ZM4.00044 4.13008V5.05675V4.13008ZM6.96378 2.64675L6.22378 3.01675L6.96378 2.64675ZM6.96378 2.64675L6.22378 2.27675L6.96378 2.64675ZM6.96378 2.64675V3.57342V2.64675ZM4.74044 1.53675L4.00044 1.16675L3.26044 1.53675H4.74044ZM1.03711 2.64675L1.77711 2.27675L1.03711 2.64675ZM1.03711 2.64675L1.77711 3.01675L1.03711 2.64675ZM1.03711 2.64675V3.57342V2.64675ZM4.00044 7.83341L3.26044 7.46341L4.00044 7.83341ZM4.00044 7.83341L4.74044 7.46341L4.00044 7.83341ZM4.00044 7.83341V6.90675V7.83341ZM1.77711 6.72341L1.03711 6.35341V5.42675L1.77711 6.72341Z" stroke="black" stroke-width="0.5" stroke-linecap="round" stroke-linejoin="round"/>
</g>
</g>
</svg>
