<svg width="26" height="25" viewBox="0 0 26 25" fill="none" xmlns="http://www.w3.org/2000/svg">
<path d="M17.797 24.2501H18.0606L18.0467 23.9869C18.0077 23.2525 17.6958 22.1675 16.8879 21.2622C16.0724 20.3484 14.7673 19.6358 12.7822 19.6358V19.6355L12.7691 19.6361C12.007 19.6761 10.8507 19.9375 9.83363 20.5959C8.80868 21.2595 7.92116 22.3305 7.73692 23.9722L7.70573 24.2501H7.98536H17.797Z" stroke="white" stroke-width="0.5"/>
<path d="M5.11356 3.4847L4.89131 3.25171L4.72067 3.52476C4.02499 4.63789 2.99417 6.47724 2.1581 8.3855C1.74001 9.33977 1.36875 10.3155 1.11273 11.2291C0.857629 12.1394 0.712322 13.0039 0.758513 13.7303C0.872536 15.5233 1.67732 16.6225 2.6408 17.2652C3.59202 17.8998 4.67995 18.0787 5.36872 18.0787C5.85139 18.0787 6.43777 17.9643 7.02012 17.6515C8.65235 16.7746 9.13107 15.127 9.04719 13.362C8.96343 11.5993 8.32029 9.65783 7.63576 8.07279C7.21761 7.10456 6.77761 6.15923 6.34963 5.35849C5.92458 4.56324 5.50136 3.89123 5.11356 3.4847Z" stroke="white" stroke-width="0.5"/>
<path d="M20.8206 3.4847L20.5983 3.25171L20.4277 3.52476C19.732 4.63789 18.7012 6.47724 17.8651 8.3855C17.447 9.33977 17.0758 10.3155 16.8198 11.2291C16.5647 12.1394 16.4194 13.0039 16.4655 13.7303C16.5796 15.5233 17.3844 16.6225 18.3478 17.2652C19.2991 17.8998 20.387 18.0787 21.0757 18.0787C21.5584 18.0787 22.1448 17.9643 22.7272 17.6515C24.3594 16.7746 24.8381 15.127 24.7542 13.362C24.6705 11.5993 24.0273 9.65783 23.3428 8.07279C22.9246 7.10456 22.4846 6.15923 22.0567 5.35849C21.6316 4.56324 21.2084 3.89123 20.8206 3.4847Z" stroke="white" stroke-width="0.5"/>
<path d="M1.00781 12.8001H9.07517" stroke="white" stroke-width="0.5"/>
<path d="M16.7148 12.8001H24.7822" stroke="white" stroke-width="0.5"/>
</svg>
