<svg width="106" height="81" viewBox="0 0 106 81" fill="none" xmlns="http://www.w3.org/2000/svg">
<path d="M8.0467 55.2897V48.1025H4.26016V55.2897C4.26016 60.0935 3.85409 62.4302 0 62.4302V62.7544H12.3061V62.4302C8.45198 62.4302 8.04591 60.0935 8.04591 55.2897H8.0467Z" fill="#3A3F43"/>
<path d="M7.9973 32.9572V24.2968C7.9973 19.4837 8.39791 17.0435 12.2003 17.0435H16.8031C22.4063 17.0435 28.1435 20.0766 28.1435 28.2529C28.1435 30.1102 27.8421 31.7003 27.3105 33.0499H31.3415C31.987 31.6858 32.3465 30.0934 32.3465 28.2529C32.3465 20.0766 25.3423 16.7134 17.337 16.7134H0.0585938V17.0427C3.86096 17.0427 4.26157 19.4822 4.26157 24.2961V32.9564H7.9973V32.9572Z" fill="#3A3F43"/>
<path d="M32.6792 55.6831C31.0272 53.2345 29.7587 50.5124 28.4313 47.9863H23.9199C25.6588 52.0848 27.3093 56.8175 30.0779 59.9685C31.9454 62.0786 34.2809 62.8699 37.2154 62.8699H42.886V62.5405C38.8171 62.5405 35.2813 59.5074 32.6792 55.6831Z" fill="#3A3F43"/>
<path d="M52.5802 48.1025H50.3428V81.0001H52.5802V48.1025Z" fill="#3A3F43"/>
<path d="M52.5802 0H50.3428V32.8976H52.5802V0Z" fill="#3A3F43"/>
<path d="M62.0449 29.4676C65.1003 21.6995 71.8085 17.0458 78.9064 16.3993C87.8432 15.6487 97.6912 21.9691 100.788 32.9196H105.38C102.468 21.4108 91.2418 15.0069 78.9064 16.0669C72.1409 16.6804 66.2014 19.5396 62.0449 23.9192V29.4676Z" fill="#3A3F43"/>
<path d="M83.1435 63.2013C74.8282 63.9581 65.7566 58.9527 62.0449 49.0447V55.827C67.1096 61.3547 74.7771 64.2989 83.2109 63.5337C93.5324 62.6468 101.561 56.7522 104.695 47.8843H100.684C98.0128 56.7216 90.8249 62.5518 83.1435 63.2006V63.2013Z" fill="#3A3F43"/>
<path d="M6.13914 41.4699H4.08173V44.2321H3.63574V37.0444H6.70642C7.16597 37.0444 7.56977 37.1368 7.91782 37.3215C8.26587 37.5062 8.53406 37.7665 8.72315 38.1016C8.91225 38.4374 9.00717 38.8236 9.00717 39.2617C9.00717 39.6998 8.91225 40.0853 8.72315 40.4166C8.53406 40.7486 8.26737 41.0073 7.92234 41.192C7.57805 41.3768 7.17576 41.4691 6.71621 41.4691L9.22941 44.2314H8.65159L6.13839 41.4691L6.13914 41.4699ZM8.05945 37.968C7.72496 37.6467 7.2737 37.4856 6.70642 37.4856H4.08173V41.0386H6.70642C7.2737 41.0386 7.72496 40.8776 8.05945 40.5562C8.39394 40.2349 8.56118 39.8029 8.56118 39.2625C8.56118 38.7221 8.39394 38.2909 8.05945 37.9688V37.968Z" fill="#3A3F43"/>
<path d="M13.0353 43.8009H17.6202V44.2321H12.5859V37.0444H17.4874V37.4757H13.0353V40.3814H17.2733V40.8127H13.0353V43.8009Z" fill="#3A3F43"/>
<path d="M27.7356 44.2321L26.8906 42.4247H22.3351L21.4901 44.2321H20.9766L24.3342 37.0444H24.8907L28.2483 44.2321H27.7348H27.7356ZM24.6132 37.5268L22.5282 41.9836H26.6991L24.614 37.5268H24.6132Z" fill="#3A3F43"/>
<path d="M31.6045 37.0444H32.047V43.7903H36.0794V44.2321H31.6045V37.0452V37.0444Z" fill="#3A3F43"/>
<path d="M39.4355 37.0444H39.9949V44.2321H39.4355V37.0444Z" fill="#3A3F43"/>
<path d="M48.9443 37.0444V37.4863H46.3624V44.2321H45.9325V37.4863H43.3506V37.0444H48.9443Z" fill="#3A3F43"/>
<path d="M57.7162 37.0444H58.1741V44.2321H57.6837L52.7698 37.7321V44.2321H52.3008V37.0444H52.8126L57.7154 43.5238V37.0444H57.7162Z" fill="#3A3F43"/>
<path d="M61.9797 43.8051H66.5646V44.2322H61.5303V37.1128H66.4317V37.54H61.9797V40.4181H66.2177V40.8453H61.9797V43.8051ZM64.6243 35.1094H65.1352L64.2569 36.2993H63.8379L64.6243 35.1094Z" fill="#3A3F43"/>
<path d="M71.6768 44.0342C71.1239 43.7185 70.6928 43.2763 70.3842 42.7092C70.0748 42.1421 69.9209 41.4976 69.9209 40.7765C69.9209 40.0554 70.0756 39.4101 70.3842 38.8438C70.6936 38.2767 71.1239 37.8353 71.6768 37.5188C72.2297 37.2031 72.8561 37.0444 73.5568 37.0444C74.2575 37.0444 74.8839 37.2023 75.4367 37.5188C75.9896 37.8353 76.4208 38.2767 76.7294 38.8438C77.0387 39.4109 77.1927 40.0554 77.1927 40.7765C77.1927 41.4976 77.038 42.1429 76.7294 42.7092C76.42 43.2763 75.9889 43.7177 75.4367 44.0342C74.8839 44.3507 74.2575 44.5086 73.5568 44.5086C72.8561 44.5086 72.2297 44.3507 71.6768 44.0342ZM75.2001 43.658C75.6841 43.3798 76.0616 42.9897 76.3335 42.4878C76.6045 41.9866 76.7401 41.4156 76.7401 40.7765C76.7401 40.1374 76.6045 39.5672 76.3335 39.0653C76.0624 38.5633 75.6841 38.1733 75.2001 37.8951C74.7162 37.6169 74.1679 37.4774 73.5568 37.4774C72.9457 37.4774 72.3982 37.6169 71.9134 37.8951C71.4295 38.1733 71.0512 38.5633 70.7801 39.0653C70.509 39.5672 70.3735 40.1374 70.3735 40.7765C70.3735 41.4156 70.509 41.9866 70.7801 42.4878C71.0512 42.9897 71.4295 43.3798 71.9134 43.658C72.3974 43.9361 72.9449 44.0756 73.5568 44.0756C74.1686 44.0756 74.7154 43.9361 75.2001 43.658Z" fill="#3A3F43"/>
<path d="M82.3699 44.0334C81.7947 43.7171 81.347 43.2741 81.0278 42.7059C80.7085 42.1378 80.5488 41.492 80.5488 40.7695C80.5488 40.047 80.7085 39.4006 81.0278 38.8332C81.347 38.265 81.7923 37.8228 82.3652 37.5057C82.9372 37.1893 83.5883 37.0304 84.3185 37.0304C84.824 37.0304 85.3014 37.1233 85.7506 37.3091C86.1998 37.4949 86.5965 37.7606 86.9401 38.1045L86.6239 38.404C86.3148 38.1007 85.9658 37.8688 85.5761 37.7068C85.1863 37.5448 84.7708 37.4642 84.3286 37.4642C83.683 37.4642 83.107 37.6039 82.6023 37.8826C82.0967 38.1614 81.7055 38.5506 81.4284 39.0497C81.1514 39.5488 81.0129 40.1223 81.0129 40.7695C81.0129 41.4168 81.1514 41.9903 81.4284 42.4894C81.7055 42.9885 82.0967 43.3777 82.6023 43.6564C83.1078 43.9352 83.683 44.0749 84.3286 44.0749C84.7708 44.0749 85.1934 43.9943 85.5972 43.8323C86.001 43.6703 86.3602 43.4384 86.6763 43.1351L86.9815 43.4346C86.6372 43.7854 86.2373 44.0526 85.7811 44.2354C85.3248 44.4181 84.8404 44.5087 84.3286 44.5087C83.5985 44.5087 82.9458 44.3505 82.3706 44.0334H82.3699ZM85.2231 35.1094H85.7287L84.4969 36.3179H84.1072L82.8754 35.1094H83.3809L84.3075 35.977L85.2231 35.1094Z" fill="#3A3F43"/>
<path d="M95.3714 44.2321H94.7254L90.7965 40.6387V44.2321H90.3379V37.0444H90.7965V40.3509L94.4233 37.0444H95.0592L91.2868 40.4845L95.3722 44.2321H95.3714Z" fill="#3A3F43"/>
<path d="M100.484 44.0342C99.9315 43.7185 99.5004 43.2763 99.1918 42.7092C98.8824 42.1421 98.7285 41.4976 98.7285 40.7765C98.7285 40.0554 98.8832 39.4101 99.1918 38.8438C99.5012 38.2767 99.9315 37.8353 100.484 37.5188C101.037 37.2031 101.664 37.0444 102.364 37.0444C103.065 37.0444 103.691 37.2023 104.244 37.5188C104.797 37.8353 105.228 38.2767 105.537 38.8438C105.846 39.4109 106 40.0554 106 40.7765C106 41.4976 105.846 42.1429 105.537 42.7092C105.228 43.2763 104.796 43.7177 104.244 44.0342C103.691 44.3507 103.065 44.5086 102.364 44.5086C101.664 44.5086 101.037 44.3507 100.484 44.0342ZM104.008 43.658C104.492 43.3798 104.869 42.9897 105.141 42.4878C105.412 41.9866 105.548 41.4156 105.548 40.7765C105.548 40.1374 105.412 39.5672 105.141 39.0653C104.87 38.5633 104.492 38.1733 104.008 37.8951C103.524 37.6169 102.975 37.4774 102.364 37.4774C101.753 37.4774 101.206 37.6169 100.721 37.8951C100.237 38.1733 99.8588 38.5633 99.5877 39.0653C99.3166 39.5672 99.1811 40.1374 99.1811 40.7765C99.1811 41.4156 99.3166 41.9866 99.5877 42.4878C99.8588 42.9897 100.237 43.3798 100.721 43.658C101.205 43.9361 101.753 44.0756 102.364 44.0756C102.976 44.0756 103.523 43.9361 104.008 43.658Z" fill="#3A3F43"/>
</svg>
