<svg width="8" height="9" viewBox="0 0 8 9" fill="none" xmlns="http://www.w3.org/2000/svg">
<g id="icon / outlined / other / location / map pin" clip-path="url(#clip0_256_314)">
<path id="Vector" d="M7 3.83325C7 6.16658 4 8.16658 4 8.16658C4 8.16658 1 6.16658 1 3.83325C1 3.0376 1.31607 2.27454 1.87868 1.71193C2.44129 1.14932 3.20435 0.833252 4 0.833252C4.79565 0.833252 5.55871 1.14932 6.12132 1.71193C6.68393 2.27454 7 3.0376 7 3.83325Z" stroke="black" stroke-width="0.5" stroke-linecap="round" stroke-linejoin="round"/>
<path id="Vector_2" d="M4 4.83325C4.55228 4.83325 5 4.38554 5 3.83325C5 3.28097 4.55228 2.83325 4 2.83325C3.44772 2.83325 3 3.28097 3 3.83325C3 4.38554 3.44772 4.83325 4 4.83325Z" stroke="black" stroke-width="0.5" stroke-linecap="round" stroke-linejoin="round"/>
</g>
<defs>
<clipPath id="clip0_256_314">
<rect width="8" height="8" fill="white" transform="translate(0 0.5)"/>
</clipPath>
</defs>
</svg>
