<svg width="95" height="73" viewBox="0 0 95 73" fill="none" xmlns="http://www.w3.org/2000/svg">
<path d="M7.21166 49.8289V43.3515H3.81806V49.8289C3.81806 54.1582 3.45414 56.2641 0 56.2641V56.5563H11.029V56.2641C7.57489 56.2641 7.21096 54.1582 7.21096 49.8289H7.21166Z" fill="white"/>
<path d="M7.16761 29.7022V21.8972C7.16761 17.5594 7.52665 15.3602 10.9344 15.3602H15.0596C20.0813 15.3602 25.2232 18.0937 25.2232 25.4625C25.2232 27.1364 24.9531 28.5694 24.4767 29.7857H28.0893C28.6678 28.5563 28.99 27.1212 28.99 25.4625C28.99 18.0937 22.7127 15.0627 15.5381 15.0627H0.0527344V15.3595C3.46051 15.3595 3.81956 17.558 3.81956 21.8965V29.7015H7.16761V29.7022Z" fill="white"/>
<path d="M29.2878 50.1835C27.8072 47.9767 26.6704 45.5234 25.4807 43.2469H21.4375C22.9959 46.9406 24.4751 51.2058 26.9565 54.0456C28.6302 55.9473 30.7233 56.6604 33.3533 56.6604H38.4354V56.3636C34.7887 56.3636 31.6199 53.6301 29.2878 50.1835Z" fill="white"/>
<path d="M47.1244 43.3515H45.1191V73H47.1244V43.3515Z" fill="white"/>
<path d="M47.1244 0H45.1191V29.6485H47.1244V0Z" fill="white"/>
<path d="M55.6064 26.5572C58.3448 19.5564 64.3568 15.3622 70.7182 14.7796C78.7275 14.1032 87.5536 19.7994 90.3294 29.6683H94.4448C91.8343 19.2962 81.7735 13.5247 70.7182 14.4801C64.6547 15.033 59.3316 17.6098 55.6064 21.5568V26.5572Z" fill="white"/>
<path d="M74.5156 56.9593C67.0632 57.6413 58.933 53.1303 55.6064 44.2008V50.3133C60.1455 55.295 67.0173 57.9485 74.576 57.2589C83.8263 56.4595 91.0218 51.1471 93.8302 43.1551H90.2356C87.8418 51.1195 81.3999 56.374 74.5156 56.9586V56.9593Z" fill="white"/>
<path d="M5.5024 37.374H3.65849V39.8635H3.25879V33.3857H6.01081C6.42267 33.3857 6.78457 33.4689 7.0965 33.6354C7.40843 33.8019 7.64879 34.0364 7.81826 34.3384C7.98773 34.6411 8.0728 34.9891 8.0728 35.384C8.0728 35.7788 7.98773 36.1262 7.81826 36.4248C7.64879 36.724 7.40978 36.9572 7.10055 37.1236C6.79199 37.2901 6.43145 37.3733 6.01959 37.3733L8.27198 39.8628H7.75412L5.50173 37.3733L5.5024 37.374ZM7.22343 34.218C6.92365 33.9284 6.51922 33.7833 6.01081 33.7833H3.65849V36.9854H6.01081C6.51922 36.9854 6.92365 36.8402 7.22343 36.5506C7.52321 36.261 7.6731 35.8717 7.6731 35.3847C7.6731 34.8977 7.52321 34.509 7.22343 34.2187V34.218Z" fill="white"/>
<path d="M11.682 39.4748H15.7912V39.8635H11.2793V33.3857H15.6721V33.7743H11.682V36.3931H15.4803V36.7818H11.682V39.4748Z" fill="white"/>
<path d="M24.8574 39.8635L24.1002 38.2346H20.0173L19.26 39.8635H18.7998L21.809 33.3857H22.3077L25.317 39.8635H24.8567H24.8574ZM22.0591 33.8204L20.1904 37.837H23.9285L22.0598 33.8204H22.0591Z" fill="white"/>
<path d="M28.3242 33.3857H28.7208V39.4653H32.3348V39.8635H28.3242V33.3864V33.3857Z" fill="white"/>
<path d="M35.3428 33.3857H35.8441V39.8635H35.3428V33.3857Z" fill="white"/>
<path d="M43.8657 33.3857V33.7839H41.5518V39.8635H41.1665V33.7839H38.8525V33.3857H43.8657Z" fill="white"/>
<path d="M51.7265 33.3857H52.1369V39.8635H51.6974L47.2934 34.0055V39.8635H46.873V33.3857H47.3318L51.7258 39.2251V33.3857H51.7265Z" fill="white"/>
<path d="M55.5483 39.4785H59.6574V39.8635H55.1455V33.4472H59.5383V33.8322H55.5483V36.4261H59.3465V36.811H55.5483V39.4785ZM57.9185 31.6416H58.3763L57.5892 32.7141H57.2137L57.9185 31.6416Z" fill="white"/>
<path d="M64.2387 39.6851C63.7432 39.4006 63.3568 39.0021 63.0803 38.491C62.803 37.9799 62.665 37.3991 62.665 36.7492C62.665 36.0993 62.8037 35.5177 63.0803 35.0073C63.3575 34.4963 63.7432 34.0984 64.2387 33.8132C64.7342 33.5286 65.2956 33.3857 65.9236 33.3857C66.5516 33.3857 67.113 33.528 67.6085 33.8132C68.104 34.0984 68.4904 34.4963 68.767 35.0073C69.0442 35.5184 69.1822 36.0993 69.1822 36.7492C69.1822 37.3991 69.0436 37.9806 68.767 38.491C68.4897 39.0021 68.1033 39.3999 67.6085 39.6851C67.113 39.9704 66.5516 40.1126 65.9236 40.1126C65.2956 40.1126 64.7342 39.9704 64.2387 39.6851ZM67.3964 39.346C67.8302 39.0953 68.1685 38.7438 68.4122 38.2914C68.6551 37.8397 68.7766 37.3252 68.7766 36.7492C68.7766 36.1732 68.6551 35.6593 68.4122 35.2069C68.1692 34.7546 67.8302 34.403 67.3964 34.1523C66.9627 33.9016 66.4713 33.7759 65.9236 33.7759C65.3759 33.7759 64.8852 33.9016 64.4508 34.1523C64.0171 34.403 63.678 34.7546 63.4351 35.2069C63.1921 35.6593 63.0706 36.1732 63.0706 36.7492C63.0706 37.3252 63.1921 37.8397 63.4351 38.2914C63.678 38.7438 64.0171 39.0953 64.4508 39.346C64.8845 39.5967 65.3753 39.7224 65.9236 39.7224C66.472 39.7224 66.962 39.5967 67.3964 39.346Z" fill="white"/>
<path d="M73.8225 39.6843C73.307 39.3992 72.9058 39 72.6197 38.4879C72.3335 37.9758 72.1904 37.3939 72.1904 36.7428C72.1904 36.0916 72.3335 35.509 72.6197 34.9976C72.9058 34.4856 73.3049 34.087 73.8183 33.8012C74.331 33.5162 74.9145 33.3729 75.5689 33.3729C76.022 33.3729 76.4498 33.4566 76.8524 33.6241C77.2549 33.7916 77.6105 34.031 77.9184 34.341L77.6351 34.6108C77.358 34.3375 77.0452 34.1285 76.696 33.9825C76.3467 33.8365 75.9743 33.7639 75.578 33.7639C74.9994 33.7639 74.4832 33.8898 74.0308 34.141C73.5777 34.3922 73.227 34.743 72.9788 35.1928C72.7305 35.6426 72.6063 36.1594 72.6063 36.7428C72.6063 37.3261 72.7305 37.843 72.9788 38.2928C73.227 38.7425 73.5777 39.0934 74.0308 39.3445C74.4839 39.5957 74.9994 39.7217 75.578 39.7217C75.9743 39.7217 76.353 39.649 76.7149 39.503C77.0768 39.357 77.3987 39.148 77.6821 38.8747L77.9556 39.1446C77.647 39.4608 77.2886 39.7016 76.8797 39.8663C76.4708 40.031 76.0367 40.1126 75.578 40.1126C74.9236 40.1126 74.3387 39.9701 73.8232 39.6843H73.8225ZM76.3797 31.6416H76.8327L75.7288 32.7308H75.3795L74.2756 31.6416H74.7286L75.5591 32.4235L76.3797 31.6416Z" fill="white"/>
<path d="M85.4741 39.8635H84.8951L81.3739 36.6249V39.8635H80.9629V33.3857H81.3739V36.3656L84.6243 33.3857H85.1943L81.8133 36.486L85.4748 39.8635H85.4741Z" fill="white"/>
<path d="M90.0561 39.6851C89.5606 39.4006 89.1742 39.0021 88.8976 38.491C88.6204 37.9799 88.4824 37.3991 88.4824 36.7492C88.4824 36.0993 88.6211 35.5177 88.8976 35.0073C89.1749 34.4963 89.5606 34.0984 90.0561 33.8132C90.5516 33.5286 91.113 33.3857 91.741 33.3857C92.369 33.3857 92.9304 33.528 93.4259 33.8132C93.9214 34.0984 94.3078 34.4963 94.5844 35.0073C94.8616 35.5184 94.9996 36.0993 94.9996 36.7492C94.9996 37.3991 94.8609 37.9806 94.5844 38.491C94.3071 39.0021 93.9207 39.3999 93.4259 39.6851C92.9304 39.9704 92.369 40.1126 91.741 40.1126C91.113 40.1126 90.5516 39.9704 90.0561 39.6851ZM93.2138 39.346C93.6476 39.0953 93.9859 38.7438 94.2295 38.2914C94.4725 37.8397 94.594 37.3252 94.594 36.7492C94.594 36.1732 94.4725 35.6593 94.2295 35.2069C93.9866 34.7546 93.6476 34.403 93.2138 34.1523C92.7801 33.9016 92.2887 33.7759 91.741 33.7759C91.1933 33.7759 90.7026 33.9016 90.2682 34.1523C89.8344 34.403 89.4954 34.7546 89.2525 35.2069C89.0095 35.6593 88.888 36.1732 88.888 36.7492C88.888 37.3252 89.0095 37.8397 89.2525 38.2914C89.4954 38.7438 89.8344 39.0953 90.2682 39.346C90.7019 39.5967 91.1926 39.7224 91.741 39.7224C92.2894 39.7224 92.7794 39.5967 93.2138 39.346Z" fill="white"/>
</svg>
