<?xml version="1.0" standalone="no"?>
<!DOCTYPE svg PUBLIC "-//W3C//DTD SVG 20010904//EN"
 "http://www.w3.org/TR/2001/REC-SVG-20010904/DTD/svg10.dtd">
<svg version="1.0" xmlns="http://www.w3.org/2000/svg"
 width="760.000000pt" height="760.000000pt" viewBox="0 0 760.000000 760.000000"
 preserveAspectRatio="xMidYMid meet">
<metadata>
Created by potrace 1.14, written by Peter Selinger 2001-2017
</metadata>
<g transform="translate(0.000000,760.000000) scale(0.100000,-0.100000)"
fill="#000000" stroke="none">
<path d="M3612 5533 l3 -1187 55 1 c30 1 65 2 78 2 l22 1 0 1185 0 1185 -80 0
-80 0 2 -1187z"/>
<path d="M5668 5565 c-2 -2 -31 -6 -65 -10 -34 -3 -72 -8 -85 -11 -13 -2 -39
-7 -58 -10 -19 -3 -53 -10 -75 -16 -22 -5 -51 -12 -63 -14 -55 -10 -244 -79
-337 -123 -190 -90 -355 -204 -502 -349 -37 -36 -34 -15 -34 -267 0 -69 0
-133 1 -142 0 -9 27 37 59 102 150 304 397 550 688 686 114 53 268 101 375
116 106 16 356 9 448 -12 14 -3 37 -7 51 -10 60 -11 240 -80 325 -124 83 -44
231 -137 260 -165 6 -6 40 -36 74 -66 206 -180 392 -469 476 -740 9 -30 19
-57 21 -60 2 -2 76 -4 163 -5 142 0 160 2 160 17 0 35 -74 228 -127 330 -133
256 -365 496 -613 631 -19 11 -53 29 -75 41 -85 47 -254 109 -395 146 -50 14
-62 16 -140 29 -30 6 -71 13 -90 16 -36 7 -436 16 -442 10z"/>
<path d="M4 5508 c-6 -10 9 -15 63 -22 142 -18 211 -107 229 -296 4 -36 8
-236 9 -445 2 -209 3 -385 4 -391 1 -7 43 -10 129 -9 70 2 129 3 132 4 3 0 5
181 5 401 0 492 10 575 81 659 15 18 45 42 68 54 39 21 54 22 316 24 290 2
352 -4 481 -47 178 -60 308 -167 403 -332 15 -27 24 -48 20 -48 -3 0 -2 -6 3
-12 13 -16 40 -101 48 -147 3 -19 8 -38 11 -43 3 -5 7 -68 8 -140 3 -130 -9
-226 -39 -330 -8 -27 -12 -48 -9 -49 28 -7 278 -2 284 6 13 16 50 136 57 185
4 25 7 101 7 170 0 133 -19 226 -66 328 -106 230 -340 390 -668 457 -17 3 -99
15 -150 22 -63 8 -1422 9 -1426 1z"/>
<path d="M4614 4157 c-34 -52 -36 -57 -21 -57 7 0 28 20 46 45 27 38 29 45 14
45 -10 0 -28 -15 -39 -33z"/>
<path d="M5950 4185 c0 -10 82 -85 93 -85 13 1 49 31 81 68 30 35 -5 28 -44
-8 -18 -16 -35 -30 -37 -30 -3 0 -19 14 -35 30 -24 26 -58 40 -58 25z"/>
<path d="M260 3790 c0 -224 2 -260 15 -260 17 0 17 -2 17 113 l0 87 79 0 c44
0 79 -3 79 -7 0 -5 40 -50 88 -102 58 -62 93 -92 104 -90 14 3 3 20 -47 74
-92 98 -111 125 -91 126 127 10 187 168 102 267 -36 41 -74 50 -215 51 l-130
2 -1 -261z m291 211 c50 -24 74 -98 54 -162 -19 -60 -63 -77 -198 -75 l-112 1
-1 120 c-1 74 3 123 9 127 18 11 220 2 248 -11z"/>
<path d="M902 3790 l0 -260 178 0 c109 0 181 4 185 10 11 18 -24 23 -178 24
l-151 1 -1 105 0 105 125 1 c183 3 180 2 180 19 0 13 -24 15 -153 15 l-152 0
0 103 0 102 145 2 c192 2 180 1 174 18 -5 13 -35 15 -179 15 l-173 0 0 -260z"/>
<path d="M1712 3983 c-111 -245 -174 -382 -187 -405 -19 -33 -19 -48 0 -48 9
0 28 27 46 64 l31 64 71 4 c40 2 114 1 166 -2 l95 -5 22 -55 c21 -52 46 -81
59 -68 6 6 -5 34 -72 178 -59 126 -108 232 -133 288 -34 76 -57 72 -98 -15z
m160 -198 c18 -38 33 -74 33 -80 0 -6 -55 -10 -142 -11 -79 -1 -143 1 -143 3
0 5 28 66 103 227 l41 89 38 -79 c20 -44 52 -110 70 -149z"/>
<path d="M2269 4048 c-3 -8 -4 -495 -1 -505 5 -17 307 -19 317 -2 4 6 4 13 1
17 -4 3 -70 6 -148 6 l-141 1 1 243 c0 202 -2 242 -14 242 -8 0 -14 -1 -15 -2z"/>
<path d="M2829 4033 c-4 -92 -1 -495 4 -499 3 -4 13 -4 21 -1 12 5 14 47 15
261 0 247 -1 256 -19 256 -12 0 -20 -7 -21 -17z"/>
<path d="M3110 4035 c0 -17 -1 -17 102 -17 62 0 77 -3 80 -17 2 -9 3 -119 2
-244 0 -202 1 -227 15 -225 14 3 16 33 16 241 0 153 3 238 10 239 5 1 46 2 90
3 66 1 81 4 83 18 3 16 -14 17 -197 17 -172 0 -201 -2 -201 -15z"/>
<path d="M3750 3790 c0 -216 2 -260 14 -260 8 0 16 6 18 13 2 6 4 110 3 230 0
119 2 217 5 216 3 0 22 -23 42 -52 142 -200 305 -407 321 -407 16 0 17 19 17
260 0 224 -2 260 -15 260 -17 0 -17 10 -17 -263 0 -186 -1 -197 -16 -178 -37
43 -48 57 -72 91 -13 19 -27 37 -30 40 -3 3 -25 32 -50 65 -25 33 -49 65 -55
72 -5 7 -37 48 -70 93 -95 128 -95 128 -95 -180z"/>
<path d="M4414 4041 c-2 -2 -4 -118 -4 -258 l0 -253 180 0 c153 0 180 2 180
15 0 17 6 16 -185 18 l-140 2 -1 95 c0 52 1 100 3 105 2 7 54 11 143 10 139
-1 168 3 156 23 -4 6 -57 9 -139 8 -72 -1 -139 0 -147 2 -13 3 -16 22 -15 105
l0 101 152 -1 c119 -1 155 2 164 13 6 8 10 15 8 15 -12 4 -351 4 -355 0z"/>
<path d="M5180 4033 c-24 -9 -50 -21 -58 -27 -75 -62 -106 -127 -105 -226 0
-46 6 -89 16 -112 15 -37 93 -129 105 -126 4 1 18 -4 31 -11 36 -20 143 -22
194 -5 52 17 119 76 142 123 70 141 11 321 -124 379 -52 22 -147 24 -201 5z
m209 -45 c50 -31 58 -39 87 -98 21 -41 25 -63 23 -117 -3 -76 -23 -124 -71
-170 -69 -65 -198 -78 -277 -27 -120 79 -139 264 -38 377 58 65 198 83 276 35z"/>
<path d="M5970 4042 c-116 -36 -187 -125 -194 -244 -4 -90 24 -160 86 -219 53
-49 119 -69 208 -64 68 4 135 33 155 65 15 24 -12 31 -38 10 -43 -34 -89 -48
-149 -45 -69 3 -112 19 -155 58 -85 77 -98 242 -26 327 47 57 98 81 173 85 56
2 77 -1 115 -21 26 -13 53 -28 60 -34 10 -8 15 -8 21 1 10 17 -40 55 -98 74
-43 15 -122 18 -158 7z"/>
<path d="M6479 4043 c0 -5 -2 -122 -2 -261 -2 -234 -1 -252 16 -252 15 0 17
13 17 126 0 69 4 124 9 122 5 -1 55 -46 111 -98 56 -52 116 -107 132 -122 17
-16 39 -28 49 -28 19 0 26 16 10 22 -8 3 -124 107 -234 212 l-41 38 78 72
c184 168 192 176 170 176 -12 0 -32 -9 -45 -21 -29 -25 -198 -179 -215 -196
-7 -7 -15 -13 -18 -13 -3 0 -6 52 -6 115 0 96 -3 115 -15 115 -8 0 -15 -3 -16
-7z"/>
<path d="M7261 4039 c-72 -22 -147 -92 -165 -156 -20 -65 -23 -151 -7 -181 5
-9 10 -21 11 -27 5 -31 37 -79 69 -104 106 -84 265 -77 355 15 56 57 71 98 70
189 -1 81 -2 89 -22 137 -15 36 -72 91 -117 112 -45 22 -146 30 -194 15z m185
-47 c73 -37 114 -104 120 -195 9 -146 -86 -251 -226 -251 -140 1 -232 98 -226
240 6 117 61 193 166 225 40 12 124 3 166 -19z"/>
<path d="M1736 3262 c-9 -2 -16 -5 -16 -7 0 -5 34 -93 54 -140 7 -16 35 -82
61 -145 115 -276 240 -492 341 -594 44 -43 95 -86 104 -86 5 0 10 -4 10 -9 0
-5 8 -11 18 -14 9 -3 44 -17 77 -30 33 -14 76 -28 95 -31 19 -3 49 -8 65 -12
35 -7 491 -12 518 -6 35 8 16 20 -45 26 -244 28 -479 202 -682 506 -67 101
-106 169 -222 395 l-72 140 -145 5 c-79 3 -152 4 -161 2z"/>
<path d="M7220 3267 c0 -1 -11 -34 -25 -72 -171 -471 -506 -818 -930 -965
-207 -72 -458 -91 -665 -49 -92 18 -204 50 -217 61 -7 6 -13 8 -13 4 0 -5 -47
14 -155 64 -193 91 -416 283 -559 483 -54 77 -151 253 -194 357 -9 20 -11 10
-12 -57 -1 -83 -1 -303 0 -368 0 -29 10 -44 58 -91 193 -191 442 -339 702
-418 214 -64 338 -81 585 -80 94 1 193 4 220 8 28 4 64 8 80 11 178 23 500
123 595 185 8 5 36 20 62 34 252 132 504 386 647 651 39 73 101 216 101 234 0
6 -53 10 -140 10 -77 0 -140 -1 -140 -2z"/>
<path d="M350 3252 l-45 -3 -1 -317 c0 -428 -8 -507 -55 -593 -39 -68 -83 -97
-172 -111 -43 -7 -76 -17 -74 -23 5 -14 877 -14 877 0 0 6 -32 16 -70 22 -144
22 -203 100 -225 296 -4 32 -7 209 -8 393 0 184 -3 334 -6 334 -36 3 -186 4
-221 2z"/>
<path d="M3648 3252 l-38 -3 0 -1185 0 -1184 80 0 80 0 0 1185 c0 1122 -1
1185 -17 1186 -10 0 -29 1 -43 2 -14 1 -42 1 -62 -1z"/>
</g>
</svg>
